<svg width="15" height="23" viewBox="0 0 15 23" fill="none" xmlns="http://www.w3.org/2000/svg">
<path d="M7.50108 2.62706e-05C6.51547 -0.00258558 5.53906 0.189581 4.62794 0.56549C3.71651 0.941531 2.88839 1.49403 2.19121 2.19121C1.49403 2.88839 0.941531 3.71651 0.56549 4.62794C0.189582 5.53906 -0.00258536 6.51547 2.62661e-05 7.50107C2.62661e-05 10.4832 1.53181 12.4815 2.2977 13.1079C2.36634 13.1727 2.43615 13.2381 2.5067 13.3042C2.94799 13.7178 3.41786 14.158 3.80571 14.6379C4.26314 15.2038 4.50003 15.7001 4.50003 16.125V17.25C4.50003 17.6642 4.83581 18 5.25003 18C5.66424 18 6.00003 17.6642 6.00003 17.25V16.125C6.00003 15.1765 5.49512 14.3418 4.97228 13.695C4.51325 13.127 3.95825 12.6079 3.52167 12.1994L3.52083 12.1986C3.45323 12.1354 3.38847 12.0748 3.32735 12.0171C2.17302 10.9275 1.50003 9.27943 1.50003 7.50003L1.50002 7.49793C1.49782 6.70966 1.65146 5.92873 1.95211 5.20003C2.25275 4.47134 2.69447 3.80926 3.25187 3.25187C3.80926 2.69447 4.47134 2.25275 5.20003 1.95211C5.92873 1.65146 6.70966 1.49782 7.49793 1.50002L7.50003 1.50003C10.8476 1.50003 13.5 4.16332 13.5 7.50003C13.5 9.34764 12.8603 10.8818 11.6693 12.0204C11.6004 12.0862 11.5268 12.1558 11.4499 12.2286C11.017 12.6381 10.4743 13.1514 10.0257 13.7068C9.50482 14.3516 9.00003 15.1825 9.00003 16.125V17.25C9.00003 17.6642 9.33581 18 9.75003 18C10.1642 18 10.5 17.6642 10.5 17.25V16.125C10.5 15.7081 10.7344 15.2165 11.1926 14.6493C11.5721 14.1794 12.0293 13.7462 12.4644 13.334L12.4667 13.3319C12.5474 13.2555 12.6273 13.1798 12.7058 13.1047C14.2185 11.6585 15 9.72022 15 7.50003C15 3.33708 11.6784 0.000585019 7.50108 2.62706e-05Z" fill="current"/>
<path d="M5.25 21.75C5.25 21.3358 5.58579 21 6 21H9C9.41421 21 9.75 21.3358 9.75 21.75C9.75 22.1642 9.41421 22.5 9 22.5H6C5.58579 22.5 5.25 22.1642 5.25 21.75Z" fill="current"/>
<path d="M5.25 18.75C4.83579 18.75 4.5 19.0858 4.5 19.5C4.5 19.9142 4.83579 20.25 5.25 20.25H9.75C10.1642 20.25 10.5 19.9142 10.5 19.5C10.5 19.0858 10.1642 18.75 9.75 18.75H5.25Z" fill="current"/>
<path d="M8.25 11.8714C8.70439 11.7303 9.21547 11.4744 9.72653 11.1094C10.0078 10.9085 10.125 10.4766 9.93747 10.1484C9.85362 10.0017 9.63279 9.75 9.30466 9.75C9.07417 9.75 8.98512 9.8044 8.86774 9.87611C8.68673 9.9867 8.43834 10.1384 7.49996 10.1953C6.56158 10.1384 6.3132 9.9867 6.13219 9.87611C6.01481 9.8044 5.92577 9.75 5.69527 9.75C5.36714 9.75 5.14631 10.0017 5.06246 10.1484C4.87496 10.4766 4.99215 10.9085 5.2734 11.1094C5.78449 11.4745 6.29559 11.7303 6.75 11.8714V17.25C6.75 17.6642 7.08579 18 7.5 18C7.91421 18 8.25 17.6642 8.25 17.25V11.8714Z" fill="current"/>
</svg>
